<svg xmlns="http://www.w3.org/2000/svg" width="73" height="73" viewBox="0 0 73 73" fill="none">
  <path d="M36.5 0C16.3417 0 0 16.3417 0 36.5C0 56.6583 16.3417 73 36.5 73C56.6583 73 73 56.6583 73 36.5C73 16.3417 56.6583 0 36.5 0ZM54.4649 43.7759C57.4158 46.7269 57.4158 51.5122 54.4649 54.4649C51.514 57.4158 46.7286 57.4158 43.776 54.4649L36.5 47.1889L29.224 54.4649C26.2731 57.4158 21.4878 57.4158 18.5351 54.4649C15.5842 51.514 15.5842 46.7286 18.5351 43.7759L25.8111 36.5L18.5351 29.224C15.5842 26.2731 15.5842 21.4878 18.5351 18.5351C21.486 15.5842 26.2714 15.5842 29.224 18.5351L36.5 25.8111L43.776 18.5351C46.7269 15.5842 51.5122 15.5842 54.4649 18.5351C57.4158 21.486 57.4158 26.2714 54.4649 29.224L47.1872 36.5L54.4649 43.7759Z" fill="#DD0000"/>
</svg>