<svg fill="#000000" width="100px" height="100px" viewBox="0 0 3 3" xmlns="http://www.w3.org/2000/svg"><path d="M2.625 1.5a0.125 0.125 0 0 0 -0.125 0.125v0.75a0.125 0.125 0 0 1 -0.125 0.125H0.625a0.125 0.125 0 0 1 -0.125 -0.125V0.625a0.125 0.125 0 0 1 0.125 -0.125h0.75a0.125 0.125 0 0 0 0 -0.25H0.625a0.375 0.375 0 0 0 -0.375 0.375v1.75a0.375 0.375 0 0 0 0.375 0.375h1.75a0.375 0.375 0 0 0 0.375 -0.375v-0.75a0.125 0.125 0 0 0 -0.125 -0.125m-1.875 0.095V2.125a0.125 0.125 0 0 0 0.125 0.125h0.53a0.125 0.125 0 0 0 0.089 -0.036l0.865 -0.866L2.714 1a0.125 0.125 0 0 0 0 -0.177l-0.53 -0.536a0.125 0.125 0 0 0 -0.177 0l-0.352 0.354 -0.868 0.866a0.125 0.125 0 0 0 -0.036 0.089m1.345 -1.044 0.354 0.354 -0.177 0.177 -0.354 -0.354ZM1 1.646l0.741 -0.741 0.354 0.354L1.354 2H1Z"/></svg>