<svg xmlns="http://www.w3.org/2000/svg" width="24" height="24" viewBox="0 0 24 24" fill="none">
  <g clip-path="url(#clip0_1_90)">
    <path d="M0 10.512L1.512 12H4.512V22.512C4.512 22.928 4.656 23.28 4.944 23.568C5.232 23.856 5.584 24 6 24H9V18C9 17.584 9.144 17.232 9.432 16.944C9.72 16.656 10.08 16.512 10.512 16.512H13.512C13.912 16.512 14.264 16.656 14.568 16.944C14.872 17.232 15.016 17.584 15 18V24H18C18.416 24 18.768 23.856 19.056 23.568C19.344 23.28 19.496 22.928 19.512 22.512V12H22.512L24 10.512L12 0L0 10.512ZM9 10.512C9 9.68 9.296 8.968 9.888 8.376C10.48 7.784 11.184 7.496 12 7.512C12.816 7.528 13.52 7.816 14.112 8.376C14.704 8.936 15 9.648 15 10.512C15 11.376 14.704 12.08 14.112 12.624C13.52 13.168 12.816 13.464 12 13.512C11.184 13.56 10.48 13.264 9.888 12.624C9.296 11.984 9 11.28 9 10.512Z" fill="#DD0000"/>
  </g>
  <defs>
    <clipPath id="clip0_1_90">
      <rect width="24" height="24" fill="white"/>
    </clipPath>
  </defs>
</svg>