<svg xmlns="http://www.w3.org/2000/svg" width="37" height="37" viewBox="0 0 37 37" fill="none">
  <path d="M19.3564 4C10.8754 4 4 10.8754 4 19.3564C4 27.8375 10.8754 34.7129 19.3564 34.7129C27.8375 34.7129 34.7129 27.8375 34.7129 19.3564C34.7129 10.8754 27.8375 4 19.3564 4ZM26.9147 22.4176C28.1562 23.6591 28.1562 25.6725 26.9147 26.9147C25.6732 28.1562 23.6599 28.1562 22.4176 26.9147L19.3564 23.8535L16.2953 26.9147C15.0538 28.1562 13.0404 28.1562 11.7982 26.9147C10.5567 25.6732 10.5567 23.6599 11.7982 22.4176L14.8594 19.3564L11.7982 16.2953C10.5567 15.0538 10.5567 13.0404 11.7982 11.7982C13.0397 10.5567 15.053 10.5567 16.2953 11.7982L19.3564 14.8594L22.4176 11.7982C23.6591 10.5567 25.6725 10.5567 26.9147 11.7982C28.1562 13.0397 28.1562 15.053 26.9147 16.2953L23.8528 19.3564L26.9147 22.4176Z" fill="white"/>
</svg>