<svg xmlns="http://www.w3.org/2000/svg" width="24" height="24" viewBox="0 0 24 24" fill="none">
  <path d="M20 23.5H4C3.73478 23.5 3.48043 23.3946 3.29289 23.2071C3.10536 23.0196 3 22.7652 3 22.5V1.5C3 1.23478 3.10536 0.98043 3.29289 0.792893C3.48043 0.605357 3.73478 0.5 4 0.5H20C20.2652 0.5 20.5196 0.605357 20.7071 0.792893C20.8946 0.98043 21 1.23478 21 1.5V22.5C21 22.7652 20.8946 23.0196 20.7071 23.2071C20.5196 23.3946 20.2652 23.5 20 23.5ZM5 21.5H19V2.5H5V21.5Z" fill="#969696"/>
  <path d="M7.50001 9.50002C7.30284 9.49919 7.11032 9.44009 6.94664 9.33015C6.78296 9.22022 6.65544 9.06435 6.5801 8.88214C6.50475 8.69993 6.48496 8.49951 6.5232 8.30608C6.56144 8.11266 6.65601 7.93485 6.79501 7.79502L8.79501 5.79502C8.94374 5.64684 9.13534 5.54923 9.34264 5.51603C9.54995 5.48282 9.76244 5.51571 9.95001 5.61002L11.365 6.32002L13.865 4.24002C14.0366 4.09595 14.2516 4.0137 14.4756 4.00644C14.6995 3.99919 14.9194 4.06736 15.1 4.20002L17.1 5.70002C17.3122 5.85915 17.4525 6.09604 17.49 6.35859C17.5275 6.62115 17.4591 6.88784 17.3 7.10002C17.1409 7.31219 16.904 7.45246 16.6414 7.48997C16.3789 7.52747 16.1122 7.45915 15.9 7.30002L14.535 6.27502L12.14 8.27502C11.9908 8.39881 11.8087 8.47653 11.6161 8.49872C11.4234 8.52092 11.2285 8.48662 11.055 8.40002L9.70001 7.71502L8.20001 9.21502C8.01295 9.39793 7.76164 9.50025 7.50001 9.50002Z" fill="#969696"/>
  <path d="M7.5 13C8.05228 13 8.5 12.5523 8.5 12C8.5 11.4477 8.05228 11 7.5 11C6.94772 11 6.5 11.4477 6.5 12C6.5 12.5523 6.94772 13 7.5 13Z" fill="#969696"/>
  <path d="M7.5 16.5C8.05228 16.5 8.5 16.0523 8.5 15.5C8.5 14.9477 8.05228 14.5 7.5 14.5C6.94772 14.5 6.5 14.9477 6.5 15.5C6.5 16.0523 6.94772 16.5 7.5 16.5Z" fill="#969696"/>
  <path d="M7.5 20C8.05228 20 8.5 19.5523 8.5 19C8.5 18.4477 8.05228 18 7.5 18C6.94772 18 6.5 18.4477 6.5 19C6.5 19.5523 6.94772 20 7.5 20Z" fill="#969696"/>
  <path d="M16.5 13H11C10.7348 13 10.4804 12.8946 10.2929 12.7071C10.1054 12.5196 10 12.2652 10 12C10 11.7348 10.1054 11.4804 10.2929 11.2929C10.4804 11.1054 10.7348 11 11 11H16.5C16.7652 11 17.0196 11.1054 17.2071 11.2929C17.3946 11.4804 17.5 11.7348 17.5 12C17.5 12.2652 17.3946 12.5196 17.2071 12.7071C17.0196 12.8946 16.7652 13 16.5 13Z" fill="#969696"/>
  <path d="M16.5 16.5H11C10.7348 16.5 10.4804 16.3946 10.2929 16.2071C10.1054 16.0196 10 15.7652 10 15.5C10 15.2348 10.1054 14.9804 10.2929 14.7929C10.4804 14.6054 10.7348 14.5 11 14.5H16.5C16.7652 14.5 17.0196 14.6054 17.2071 14.7929C17.3946 14.9804 17.5 15.2348 17.5 15.5C17.5 15.7652 17.3946 16.0196 17.2071 16.2071C17.0196 16.3946 16.7652 16.5 16.5 16.5Z" fill="#969696"/>
  <path d="M16.5 20H11C10.7348 20 10.4804 19.8946 10.2929 19.7071C10.1054 19.5196 10 19.2652 10 19C10 18.7348 10.1054 18.4804 10.2929 18.2929C10.4804 18.1054 10.7348 18 11 18H16.5C16.7652 18 17.0196 18.1054 17.2071 18.2929C17.3946 18.4804 17.5 18.7348 17.5 19C17.5 19.2652 17.3946 19.5196 17.2071 19.7071C17.0196 19.8946 16.7652 20 16.5 20Z" fill="#969696"/>
</svg>