<svg width="100px" height="100px" viewBox="0 0 128 128" class="icon" version="1.1" xmlns="http://www.w3.org/2000/svg"><path d="m114.656 100.299 -16.335 -16.343c-0.371 -0.374 -1.29 0.033 -2.365 0.806l-1.335 -1.335c6.824 -8.868 6.426 -21.406 -1.066 -29.899V48.925l0.016 0.057c0 -8.831 -8.432 -17.108 -12.961 -21.552l-1.034 -1.026C66.221 13.048 60.654 11.932 56.104 11.932l-1.546 -0.008h-35.71c-2.124 0 -5.917 1.611 -5.917 4.835v94.503c0 2.67 2.165 4.843 4.834 4.843h70.948c2.67 0 4.843 -2.173 4.843 -4.843V94.17c4.66 4.664 13.613 13.617 13.613 13.617 1.62 1.611 9.116 -5.86 7.488 -7.488" fill="#27323A"/><path d="M88.404 81.522c-6.857 6.861 -18.032 6.87 -24.894 0 -6.861 -6.869 -6.861 -18.044 0 -24.905 3.321 -3.321 7.741 -5.144 12.445 -5.144 4.712 0 9.128 1.823 12.449 5.144 6.861 6.869 6.861 18.036 0 24.905" fill="#FFFFFF"/><path d="m75.402 30.571 1.082 1.066c1.897 1.856 4.558 4.493 6.817 7.431 -4.44 -1.66 -9.389 -1.978 -13.792 -2.156 -0.138 -2.93 -0.7 -8.912 -2.686 -14.105 2.336 1.831 5.143 4.322 8.579 7.765" fill="#79CCBF"/><path d="M18.831 110.204V17.85c0.016 -0.008 0.081 -0.033 0.081 -0.033h35.629l1.546 0.008c0.781 0 1.815 0.016 3.305 0.512l0.749 0.781c4.045 3.996 5.502 13.951 5.502 19.672 0 1.05 0.83 1.921 1.888 1.962l0.814 0.033c6.112 0.236 13.731 0.529 18.358 4.721l0.423 0.423c0.297 0.936 0.492 1.864 0.525 2.784 -9.006 -5.177 -20.661 -4.013 -28.357 3.687 -9.205 9.205 -9.205 24.132 0 33.338 7.7 7.699 19.355 8.872 28.361 3.687v20.779z" fill="#F4CE73"/></svg>